<?xml version="1.0" standalone="no"?><!DOCTYPE svg PUBLIC "-//W3C//DTD SVG 1.1//EN" "http://www.w3.org/Graphics/SVG/1.1/DTD/svg11.dtd"><svg width="100%" height="100%" viewBox="0 0 304 372" version="1.1" xmlns="http://www.w3.org/2000/svg" xmlns:xlink="http://www.w3.org/1999/xlink" xml:space="preserve" style="fill-rule:evenodd;clip-rule:evenodd;stroke-linejoin:round;stroke-miterlimit:1.41421;"><path d="M136,28l16,28c67.995,47.837 -88,88 -88,228c0,54 46,88 88,88l16,-8l-16,-7.97c-32,0 -61,-28.03 -61,-64.03c0,-103.496 165.9,-169.447 120.242,-244.002c-9.486,-15.49 -54.242,-16.998 -59.242,-47.998l-16,28Z" style="fill:url(#tag1);fill-rule:nonzero;"/><clipPath id="tag2"><path d="M136,28l16,28c67.995,47.837 -88,88 -88,228c0,54 46,88 88,88l16,-8l-16,-7.97c-32,0 -61,-28.03 -61,-64.03c0,-103.496 165.9,-169.447 120.242,-244.002c-9.486,-15.49 -54.242,-16.998 -59.242,-47.998l-16,28Z"/></clipPath><g clip-path="url(#tag2)"><g><g opacity="0.350006"><path d="M92.1168,147.408c9.109,11.238 19.431,22.394 30.142,33.962c32.32,34.906 65.741,71.001 65.741,110.63c0,10.576 -4.04,20.534 -11.376,28.038c-6.829,6.985 -15.804,10.991 -24.624,10.991c-31.409,0 -90,-34.012 -90,-99.029c0,-31.82 13.177,-60.661 30.117,-84.592M245.501,38.8974c-28.877,-28.307 -57.679,-47.005 -72.284,-55.639l-5.543,-19.401l-5.825,2.989l-0.201,-0.353l-9.886,5.285l-15.436,-7.921l-5.515,19.305c-11.123,6.383 -20.85,12.832 -29.262,19.402c-13.005,9.467 -28.019,21.599 -43.049,36.333c-54.626,53.547 -83.5,116.171 -83.5,181.103c0,48.536 19.052,93.636 53.647,126.996c30.363,29.279 70.919,47.04 112.649,49.655l0.349,0.349l20.711,0l0.351,-0.352c41.729,-2.613 82.284,-20.374 112.647,-49.652c34.594,-33.36 53.646,-78.46 53.646,-126.996c0,-64.932 -28.874,-127.556 -83.499,-181.103" style="fill:#231f20;fill-rule:nonzero;"/></g></g></g><path d="M0,220c0,88 72,152 152,152l8,-8l-8,-7.97c-44,0 -115,-44.03 -115,-124.03c0,-68.533 49.939,-123.172 83.999,-152.467c15.001,-41.533 31.001,-23.533 31.001,-23.533l8,-28l-8,-28c0,0 -152,77 -152,220Z" style="fill:url(#tag3);fill-rule:nonzero;"/><clipPath id="tag4"><path d="M0,220c0,88 72,152 152,152l8,-8l-8,-7.97c-44,0 -115,-44.03 -115,-124.03c0,-68.533 49.939,-123.172 83.999,-152.467c15.001,-41.533 31.001,-23.533 31.001,-23.533l8,-28l-8,-28c0,0 -152,77 -152,220Z"/></clipPath><g clip-path="url(#tag4)"><g><g opacity="0.350006"><clipPath id="tag5"><rect x="59.8" y="-36.143" width="269.2" height="393.124"/></clipPath><g clip-path="url(#tag5)"><path d="M245.501,38.897c-30.994,-30.382 -61.91,-49.701 -75.269,-57.38l-8.585,-15.023l-9.885,5.285l-15.436,-7.922l-5.515,19.306c-42.693,24.499 -65.026,49.957 -70.006,79.6c-3.517,20.937 2.177,42.452 17.407,65.775c11.659,17.853 27.392,34.844 44.047,52.833c32.32,34.905 65.741,71 65.741,110.629c0,10.576 -4.04,20.534 -11.376,28.038c-6.829,6.985 66.4,58.133 98.73,26.958c34.594,-33.359 53.646,-78.46 53.646,-126.996c0,-64.931 -28.874,-127.555 -83.499,-181.103" style="fill:#231f20;fill-rule:nonzero;"/></g></g></g></g><path d="M144,28l7.991,28c0,0 115.009,72 115.009,176c0,80 -71,124.03 -115,124.03l-8,7.97l8,8c80,0 152,-64 152,-152c0,-143 -152,-220 -152,-220l-8,28Z" style="fill:url(#tag6);fill-rule:nonzero;"/><clipPath id="tag7"><path d="M144,28l7.991,28c0,0 115.009,72 115.009,176c0,80 -71,124.03 -115,124.03l-8,7.97l8,8c80,0 152,-64 152,-152c0,-143 -152,-220 -152,-220l-8,28Z"/></clipPath><g clip-path="url(#tag7)"><g><g opacity="0.350006"><clipPath id="tag8"><rect x="59.8" y="-22.047" width="205.2" height="419.047"/></clipPath><g clip-path="url(#tag8)"><path d="M152,397l-5.902,0l-66.082,-33.041l66.102,-32.93l5.882,0c8.819,0 17.795,-4.006 24.624,-10.991c7.336,-7.504 11.376,-17.462 11.376,-28.038c0,-39.629 -33.421,-75.724 -65.741,-110.629c-16.655,-17.989 -32.388,-34.98 -44.047,-52.833c-15.23,-23.323 -20.924,-44.838 -17.407,-65.775c5.334,-31.749 30.566,-58.698 79.408,-84.81l-9.213,18.047l9,71l7,8c-3.982,2.802 13.67,6.188 12.997,7.094c0.391,1.227 1.644,4.173 5.597,9.549c4.997,6.795 12.104,14.587 20.333,23.611c31.488,34.528 79.073,86.708 79.073,168.746c0,31.971 -12.934,61.354 -36.42,82.736c-21.125,19.233 -49.037,30.264 -76.58,30.264" style="fill:#000;fill-rule:nonzero;"/></g></g></g></g><path d="M213,292c0,36 -29,64.03 -61,64.03l-16,7.97l16,8c42,0 88,-34 88,-88c0,-140 -156.004,-180.163 -88.009,-228l16.009,-28l-16,-28c-181,96.768 61,167 61,292Z" style="fill:url(#tag9);fill-rule:nonzero;"/><defs><linearGradient id="tag1" x1="0" y1="0" x2="1" y2="0" gradientUnits="userSpaceOnUse" gradientTransform="matrix(0,295.083,-295.083,0,152,60)"><stop offset="0%" style="stop-color:#a12eb3;stop-opacity:1"/><stop offset="100%" style="stop-color:#ff4747;stop-opacity:1"/></linearGradient><linearGradient id="tag3" x1="0" y1="0" x2="1" y2="0" gradientUnits="userSpaceOnUse" gradientTransform="matrix(0,296.042,-296.042,0,152,58)"><stop offset="0%" style="stop-color:#a12eb3;stop-opacity:1"/><stop offset="100%" style="stop-color:#ff4747;stop-opacity:1"/></linearGradient><linearGradient id="tag6" x1="0" y1="0" x2="1" y2="0" gradientUnits="userSpaceOnUse" gradientTransform="matrix(0,299.171,-299.171,0,152,56.5)"><stop offset="0%" style="stop-color:#f7c500;stop-opacity:1"/><stop offset="100%" style="stop-color:#ff4747;stop-opacity:1"/></linearGradient><linearGradient id="tag9" x1="0" y1="0" x2="1" y2="0" gradientUnits="userSpaceOnUse" gradientTransform="matrix(0,298.015,-298.015,0,162.404,57)"><stop offset="0%" style="stop-color:#f7c500;stop-opacity:1"/><stop offset="100%" style="stop-color:#ff4747;stop-opacity:1"/></linearGradient></defs></svg>