<?xml version="1.0" standalone="no"?><!DOCTYPE svg PUBLIC "-//W3C//DTD SVG 1.1//EN" "http://www.w3.org/Graphics/SVG/1.1/DTD/svg11.dtd"><svg width="100%" height="100%" viewBox="0 0 304 372" version="1.1" xmlns="http://www.w3.org/2000/svg" xmlns:xlink="http://www.w3.org/1999/xlink" xml:space="preserve" style="fill-rule:evenodd;clip-rule:evenodd;stroke-linejoin:round;stroke-miterlimit:1.41421;"><clipPath id="tag1"><path d="M136,28l16,28c67.995,47.837 -88,88 -88,228c0,54 46,88 88,88l16,-8l-16,-7.97c-32,0 -61,-28.03 -61,-64.03c0,-103.496 165.9,-169.447 120.242,-244.002c-9.486,-15.49 -54.242,-16.998 -59.242,-47.998l-16,28Z"/></clipPath><g clip-path="url(#tag1)"><rect x="-40" y="-4" width="384" height="384" style="fill:#fff;fill-rule:nonzero;"/></g><clipPath id="tag2"><path d="M0,220c0,88 72,152 152,152l8,-8l-8,-7.97c-44,0 -115,-44.03 -115,-124.03c0,-68.533 49.939,-123.172 83.999,-152.467c15.001,-41.533 31.001,-23.533 31.001,-23.533l8,-28l-8,-28c0,0 -152,77 -152,220Z"/></clipPath><g clip-path="url(#tag2)"><rect x="-40" y="-4" width="384" height="384" style="fill:#fff;fill-rule:nonzero;"/></g><clipPath id="tag3"><path d="M144,28l7.991,28c0,0 115.009,72 115.009,176c0,80 -71,124.03 -115,124.03l-8,7.97l8,8c80,0 152,-64 152,-152c0,-143 -152,-220 -152,-220l-8,28Z"/></clipPath><g clip-path="url(#tag3)"><rect x="-40" y="-4" width="384" height="384" style="fill:#fff;fill-rule:nonzero;"/></g><path d="M152,372c42,0 88,-34 88,-88c0,-140 -156.005,-180.163 -88.009,-228l16.009,-28l-16,-28c-181,96.769 61,167 61,292c0,36 -29,64.029 -61,64.029l-16,7.971l16,8Z" style="fill:#fff;fill-rule:nonzero;"/></svg>